<svg width="60" height="60" viewBox="0 0 60 60" fill="none" xmlns="http://www.w3.org/2000/svg">
<path d="M26.25 7.5H11.25C10.2554 7.5 9.30161 7.89509 8.59835 8.59835C7.89509 9.30161 7.5 10.2554 7.5 11.25V38.75C7.5 39.7446 7.89509 40.6984 8.59835 41.4016C9.30161 42.1049 10.2554 42.5 11.25 42.5H48.75C49.7446 42.5 50.6984 42.1049 51.4016 41.4016C52.1049 40.6984 52.5 39.7446 52.5 38.75V26.25M30 42.5V52.5" stroke="#E8EBF0" stroke-width="2.5" stroke-linecap="round" stroke-linejoin="round"/>
<path d="M40 7.5L35 12.5L40 17.5M47.5 7.5L52.5 12.5L47.5 17.5M17.5 52.5H42.5" stroke="#E8EBF0" stroke-width="2.5" stroke-linecap="round" stroke-linejoin="round"/>
</svg>
