<svg width="60" height="60" viewBox="0 0 60 60" fill="none" xmlns="http://www.w3.org/2000/svg">
<g clip-path="url(#clip0_96_9)">
<path d="M59.6588 17.1043L42.8963 0.341849C42.3488 -0.205651 41.6287 -0.0819011 41.295 0.615599L39.0488 5.2956L54.705 20.9518L59.385 18.7056C60.0825 18.3718 60.2063 17.6481 59.6588 17.1043ZM36.0562 7.93185L20.625 9.2181C19.6012 9.3456 18.7463 9.5631 18.45 10.9018C14.265 31.0019 0 50.6218 0 50.6218L3.36 53.9818L19.2975 38.0443C18.7256 36.847 18.5954 35.486 18.9299 34.2019C19.2644 32.9178 20.0421 31.7933 21.1255 31.0272C22.2089 30.2611 23.5283 29.9026 24.8504 30.0152C26.1726 30.1278 27.4124 30.7041 28.3507 31.6424C29.289 32.5807 29.8653 33.8205 29.9779 35.1427C30.0905 36.4648 29.732 37.7842 28.9659 38.8676C28.1998 39.951 27.0753 40.7287 25.7912 41.0632C24.5071 41.3977 23.1461 41.2675 21.9488 40.6956L6.01125 56.6331L9.37125 59.9931C9.37125 59.9931 28.9875 45.7281 49.0875 41.5431C50.4263 41.2506 50.6475 40.3956 50.775 39.3681L52.0613 23.9368L36.0525 7.9281L36.0562 7.93185Z" fill="#E8EBF0"/>
</g>
<defs>
<clipPath id="clip0_96_9">
<rect width="60" height="60" fill="white"/>
</clipPath>
</defs>
</svg>
