<svg width="17" height="17" viewBox="0 0 17 17" fill="none" xmlns="http://www.w3.org/2000/svg">
<path d="M15.2218 8.93375C15.2234 9.13884 15.1611 9.33932 15.0435 9.50733C14.9259 9.67535 14.7588 9.80255 14.5656 9.87125L10.6006 11.3131L9.15934 15.2775C9.0883 15.4689 8.9604 15.6339 8.79281 15.7505C8.62522 15.867 8.42597 15.9295 8.22184 15.9295C8.0177 15.9295 7.81846 15.867 7.65087 15.7505C7.48328 15.6339 7.35537 15.4689 7.28434 15.2775L5.84309 11.3125L1.87809 9.87125C1.68671 9.80022 1.52166 9.67231 1.4051 9.50472C1.28855 9.33713 1.22607 9.13789 1.22607 8.93375C1.22607 8.72962 1.28855 8.53037 1.4051 8.36278C1.52166 8.19519 1.68671 8.06729 1.87809 7.99625L5.84309 6.555L7.28434 2.59C7.35537 2.39863 7.48328 2.23357 7.65087 2.11702C7.81846 2.00046 8.0177 1.93799 8.22184 1.93799C8.42597 1.93799 8.62522 2.00046 8.79281 2.11702C8.9604 2.23357 9.0883 2.39863 9.15934 2.59L10.6012 6.555L14.5656 7.99625C14.7588 8.06496 14.9259 8.19216 15.0435 8.36017C15.1611 8.52819 15.2234 8.72867 15.2218 8.93375Z" fill="url(#paint0_linear_182_237)"/>
<defs>
<linearGradient id="paint0_linear_182_237" x1="15.2219" y1="1.93799" x2="1.23034" y2="15.9338" gradientUnits="userSpaceOnUse">
<stop stop-color="#1B69D2"/>
<stop offset="1" stop-color="#07346F"/>
</linearGradient>
</defs>
</svg>
