<svg width="50" height="51" viewBox="0 0 50 51" fill="none" xmlns="http://www.w3.org/2000/svg">
<g clip-path="url(#clip0_170_46)">
<path d="M0 0.5H50V50.5H0V0.5Z" fill="#512BD4"/>
<path d="M8.91133 32.4443C8.55781 32.4443 8.25736 32.3266 8.00996 32.091C7.76257 31.8493 7.6388 31.5624 7.63867 31.2301C7.63867 30.8918 7.76237 30.6018 8.00977 30.3602C8.25729 30.1185 8.55781 29.9977 8.91133 29.9977C9.2707 29.9977 9.57415 30.1185 9.82168 30.3602C10.0751 30.6018 10.2018 30.8918 10.2018 31.2301C10.2018 31.5622 10.0751 31.8492 9.82168 32.091C9.57428 32.3267 9.2709 32.4445 8.91152 32.4445M23.0445 32.2453H20.7467L14.6922 22.6934C14.5412 22.4558 14.4139 22.2039 14.3121 21.9414H14.259L14.2682 22.001L14.2766 22.0693L14.2844 22.1461L14.2918 22.2313L14.3014 22.375L14.3096 22.5375L14.3164 22.7191L14.3219 22.9199L14.3258 23.1396L14.3277 23.2969L14.3297 23.7266V32.2449H12.2969V19.25H14.7451L20.5961 28.5748L20.7406 28.8031L20.8338 28.9531L20.9135 29.085L20.9799 29.1988L21.017 29.2648L21.0482 29.3227L21.0736 29.3725H21.1088L21.1021 29.3314L21.0897 29.2436L21.0779 29.1473L21.0676 29.0424L21.0629 28.9867L21.0539 28.8691L21.0461 28.7432L21.0393 28.6084L21.0311 28.3908L21.0252 28.1541L21.0217 27.8982L21.0205 27.6234V19.25H23.0443L23.0445 32.2453ZM32.9439 32.2453H25.8291V19.25H32.6611V21.0807H27.9326V24.7598H32.29V26.5812H27.9326V30.4236H32.9439V32.2453ZM43.0557 21.0809H39.4139V32.2453H37.3104V21.0809H33.6775V19.25H43.0553L43.0557 21.0809Z" fill="white"/>
</g>
<defs>
<clipPath id="clip0_170_46">
<rect width="50" height="50" fill="white" transform="translate(0 0.5)"/>
</clipPath>
</defs>
</svg>
