<svg width="50" height="51" viewBox="0 0 50 51" fill="none" xmlns="http://www.w3.org/2000/svg">
<g clip-path="url(#clip0_170_49)">
<path d="M25 50.5C38.8071 50.5 50 39.3071 50 25.5C50 11.6929 38.8071 0.5 25 0.5C11.1929 0.5 0 11.6929 0 25.5C0 39.3071 11.1929 50.5 25 50.5Z" fill="black"/>
<path d="M41.5301 44.2555L19.2059 15.5H15V35.4918H18.3648V19.773L38.8883 46.2902C39.8132 45.6715 40.6957 44.9918 41.5301 44.2555Z" fill="url(#paint0_linear_170_49)"/>
<path d="M31.9443 15.5H35.2775V35.5H31.9443V15.5Z" fill="url(#paint1_linear_170_49)"/>
</g>
<defs>
<linearGradient id="paint0_linear_170_49" x1="30.2777" y1="32.8611" x2="40.1388" y2="45.0833" gradientUnits="userSpaceOnUse">
<stop stop-color="white"/>
<stop offset="1" stop-color="white" stop-opacity="0"/>
</linearGradient>
<linearGradient id="paint1_linear_170_49" x1="33.6109" y1="15.5" x2="33.555" y2="30.1875" gradientUnits="userSpaceOnUse">
<stop stop-color="white"/>
<stop offset="1" stop-color="white" stop-opacity="0"/>
</linearGradient>
<clipPath id="clip0_170_49">
<rect width="50" height="50" fill="white" transform="translate(0 0.5)"/>
</clipPath>
</defs>
</svg>
