<svg width="50" height="51" viewBox="0 0 50 51" fill="none" xmlns="http://www.w3.org/2000/svg">
<g clip-path="url(#clip0_170_33)">
<path d="M38.2812 0.5H11.7188C5.24666 0.5 0 5.74666 0 12.2188V38.7812C0 45.2533 5.24666 50.5 11.7188 50.5H38.2812C44.7533 50.5 50 45.2533 50 38.7812V12.2188C50 5.74666 44.7533 0.5 38.2812 0.5Z" fill="#F4F2ED"/>
<path d="M6.68945 12.4385L24.8682 5.96875L43.5254 12.3383L40.5102 36.3789L24.8682 45.0312L9.48008 36.4912L6.68945 12.4385Z" fill="#E23237"/>
<path d="M43.5254 12.3385L24.8682 5.96875V45.0312L40.5102 36.3789L43.5254 12.3385Z" fill="#B52E31"/>
<path d="M24.8965 10.5342L13.5684 35.7295L17.7957 35.6439L20.0783 29.9508H30.2102L32.6906 35.6881L36.7213 35.7734L24.8965 10.5342ZM24.9244 18.6225L28.7574 26.6268H21.5822L24.9355 18.6225H24.9244Z" fill="white"/>
</g>
<defs>
<clipPath id="clip0_170_33">
<rect width="50" height="50" fill="white" transform="translate(0 0.5)"/>
</clipPath>
</defs>
</svg>
