<svg width="50" height="51" viewBox="0 0 50 51" fill="none" xmlns="http://www.w3.org/2000/svg">
<path d="M8.85547 18.8594H47.7891V47.6367H8.85547V18.8594Z" fill="white"/>
<path d="M0.710938 25.4648V49.8789H49.5391V1.05078H0.710938V25.4648ZM40.0586 23.5117C41.2281 23.7831 42.291 24.3948 43.1133 25.2695C43.5659 25.7409 43.9594 26.2655 44.2852 26.832C44.2852 26.8945 42.1758 28.3203 40.8906 29.1172C40.8438 29.1484 40.6562 28.9453 40.4492 28.6367C40.2146 28.2319 39.8813 27.8931 39.4803 27.652C39.0793 27.4109 38.6238 27.2753 38.1562 27.2578C36.6758 27.1562 35.7227 27.9336 35.7305 29.2109C35.7186 29.5289 35.7914 29.8444 35.9414 30.125C36.2656 30.8008 36.8711 31.2031 38.7695 32.0234C42.2656 33.5273 43.7617 34.5195 44.6914 35.9297C45.7305 37.4922 45.9609 40.0156 45.2578 41.8828C44.4766 43.9141 42.5625 45.293 39.8555 45.75C38.6191 45.8917 37.3699 45.8786 36.1367 45.7109C34.2467 45.3994 32.5058 44.492 31.168 43.1211C30.7188 42.625 29.8438 41.332 29.8984 41.2383C30.0408 41.132 30.1909 41.0367 30.3477 40.9531L32.1562 39.9531L33.5586 39.1406L33.8516 39.5742C34.3461 40.2813 34.9753 40.884 35.7031 41.3477C37.2656 42.168 39.3984 42.0547 40.4531 41.1055C40.8072 40.7576 41.0281 40.2966 41.0774 39.8027C41.1266 39.3088 41.0011 38.8132 40.7227 38.4023C40.332 37.8594 39.5508 37.4023 37.3672 36.4492C34.8477 35.3633 33.7617 34.6914 32.7695 33.6211C32.1503 32.9147 31.6931 32.0814 31.4297 31.1797C31.2334 30.1494 31.2044 29.0942 31.3438 28.0547C31.8633 25.6211 33.6875 23.9219 36.3516 23.418C37.5853 23.2656 38.835 23.2998 40.0586 23.5195V23.5117ZM28.5977 25.5586V27.5586H22.2578V45.6172H17.7617V27.5547H11.4062V25.6016C11.3863 24.928 11.402 24.2539 11.4531 23.582C11.4844 23.5469 15.3594 23.5469 20.0469 23.5469H28.5742L28.5977 25.5586Z" fill="#007ACC"/>
</svg>
