<svg width="50" height="46" viewBox="0 0 50 46" fill="none" xmlns="http://www.w3.org/2000/svg">
<g clip-path="url(#clip0_170_26)">
<path d="M41.11 14.9187C40.5778 14.7362 40.0412 14.5671 39.5006 14.4115C39.5914 14.0404 39.675 13.6738 39.7492 13.3136C40.9676 7.39938 40.1711 2.63473 37.4506 1.06598C34.8422 -0.437925 30.5764 1.13024 26.2682 4.87965C25.8436 5.24982 25.4284 5.63067 25.023 6.02184C24.7517 5.76174 24.4755 5.50668 24.1947 5.2568C19.6795 1.24782 15.1537 -0.441831 12.4361 1.13141C9.83008 2.64001 9.0584 7.11911 10.1553 12.7242C10.2644 13.2793 10.3876 13.8316 10.5248 14.3804C9.88418 14.5625 9.26602 14.7562 8.67441 14.9625C3.38066 16.8082 0 19.7006 0 22.7007C0 25.7994 3.6293 28.9074 9.14297 30.792C9.58998 30.9441 10.0407 31.0851 10.4947 31.2148C10.3473 31.806 10.2164 32.4011 10.1021 32.9996C9.05645 38.5074 9.87305 42.8806 12.4721 44.3797C15.1564 45.9277 19.6619 44.3367 24.0488 40.5017C24.4045 40.1899 24.7524 39.8693 25.0922 39.5402C25.5312 39.9638 25.9819 40.375 26.4438 40.7734C30.6934 44.43 34.8902 45.9066 37.4867 44.4035C40.1686 42.8509 41.0402 38.1529 39.9086 32.4371C39.8194 31.9893 39.7195 31.5437 39.6088 31.1007C39.9252 31.007 40.2357 30.9105 40.5385 30.8101C46.2705 28.9111 50 25.8408 50 22.7007C50 19.6896 46.5102 16.7777 41.11 14.9187ZM39.8668 28.7828C39.5931 28.8731 39.3131 28.9607 39.027 29.0455C38.3941 27.0422 37.5402 24.9121 36.4951 22.7111C37.4924 20.5627 38.3135 18.4597 38.9285 16.4695C39.44 16.6175 39.9363 16.7736 40.4148 16.9382C45.0418 18.5312 47.8641 20.8861 47.8641 22.7007C47.8641 24.6336 44.816 27.1427 39.8668 28.7828ZM37.8133 32.8519C38.3137 35.3793 38.385 37.6644 38.0535 39.4509C37.7559 41.0562 37.157 42.1263 36.4164 42.555C34.8408 43.4672 31.4711 42.2816 27.8369 39.1543C27.4073 38.7838 26.9881 38.4015 26.5797 38.0078C27.9887 36.467 29.3967 34.6758 30.7709 32.6863C33.1881 32.4718 35.4717 32.1211 37.5426 31.6424C37.6448 32.0541 37.735 32.4573 37.8133 32.8519ZM17.0461 42.3974C15.5066 42.941 14.2805 42.9566 13.5393 42.5293C11.9621 41.6197 11.3064 38.1082 12.2008 33.398C12.3071 32.8414 12.4288 32.2879 12.5658 31.7381C14.6139 32.1912 16.8809 32.517 19.3037 32.7134C20.6873 34.6601 22.1359 36.4494 23.5959 38.0162C23.2856 38.3164 22.968 38.6089 22.6434 38.8935C20.7033 40.5892 18.7594 41.7924 17.0461 42.3974ZM9.83398 28.7709C7.3959 27.9375 5.38242 26.8545 4.00234 25.6726C2.76211 24.6107 2.13613 23.5562 2.13613 22.7007C2.13613 20.88 4.85039 18.5578 9.37754 16.9795C9.92695 16.7881 10.502 16.6074 11.0986 16.4379C11.7244 18.473 12.5451 20.6009 13.5355 22.7527C12.5322 24.9363 11.6998 27.0982 11.068 29.1574C10.6535 29.0387 10.2421 28.9098 9.83398 28.7709ZM12.2516 12.3138C11.3119 7.51168 11.9359 3.88922 13.5064 2.98004C15.1791 2.01168 18.8779 3.39235 22.7766 6.85407C23.0308 7.0803 23.2809 7.31114 23.5268 7.54645C22.074 9.10641 20.6387 10.8824 19.2674 12.8175C16.9158 13.0355 14.6648 13.3855 12.5953 13.8545C12.4678 13.344 12.3532 12.8301 12.2516 12.3138ZM33.8193 17.6398C33.3305 16.7955 32.8236 15.9617 32.2988 15.1392C33.8941 15.341 35.4227 15.6088 36.858 15.9361C36.4271 17.3173 35.89 18.7613 35.2578 20.2418C34.7957 19.365 34.3161 18.4975 33.8193 17.6398ZM25.024 9.07321C26.0092 10.1406 26.9959 11.3322 27.9664 12.6252C25.9977 12.5322 24.0256 12.5318 22.0568 12.624C23.0283 11.3429 24.0234 10.1529 25.024 9.07321ZM16.1723 17.6543C15.6817 18.505 15.2111 19.3671 14.7607 20.2398C14.1389 18.7646 13.6066 17.314 13.1721 15.9132C14.5986 15.5941 16.1199 15.3332 17.7051 15.1351C17.1745 15.9627 16.6634 16.8027 16.1723 17.6543ZM17.7506 30.4181C16.1129 30.2353 14.5688 29.9879 13.1426 29.6773C13.584 28.2515 14.1279 26.7701 14.7633 25.2632C15.2154 26.1366 15.688 26.9992 16.1807 27.8504C16.6873 28.7254 17.2119 29.5824 17.7506 30.4181ZM25.083 36.4787C24.0705 35.3865 23.0607 34.1781 22.0746 32.8785C23.032 32.916 24.008 32.9351 25 32.9351C26.0191 32.9351 27.0266 32.9123 28.0182 32.8681C27.0445 34.1912 26.0615 35.4013 25.083 36.4787ZM35.2779 25.1863C35.9463 26.7097 36.5096 28.1834 36.9568 29.5847C35.5072 29.9156 33.942 30.182 32.2928 30.3799C32.8213 29.5421 33.333 28.6939 33.8277 27.8357C34.3308 26.9635 34.8143 26.0801 35.2779 25.1863ZM31.9775 26.7685C31.2201 28.0842 30.4201 29.3749 29.5789 30.6386C28.055 30.7466 26.5277 30.8002 25 30.7994C23.4439 30.7994 21.9305 30.7509 20.473 30.6564C19.6098 29.3957 18.7945 28.1027 18.0291 26.7802C17.2672 25.4649 16.5557 24.121 15.8959 22.7515C16.554 21.3818 17.2635 20.0373 18.0229 18.7209L18.0227 18.7211C18.7816 17.4043 19.5903 16.1168 20.4471 14.8615C21.934 14.749 23.4588 14.6904 24.9998 14.6904C26.5479 14.6904 28.0748 14.7496 29.5613 14.8629C30.4094 16.1163 31.213 17.3993 31.9705 18.7095C32.7322 20.0231 33.4511 21.361 34.126 22.7213C33.458 24.0954 32.7414 25.4453 31.9775 26.7685ZM36.3838 2.91618C38.058 3.8818 38.7092 7.77575 37.6572 12.8822C37.5898 13.2082 37.5149 13.5396 37.4326 13.8763C35.358 13.3974 33.1055 13.0414 30.7471 12.8201C29.3732 10.8636 27.9496 9.08493 26.5205 7.54508C26.8951 7.18406 27.2785 6.83239 27.6705 6.4904C31.3619 3.27809 34.8119 2.00973 36.3838 2.91618ZM25 18.2359C27.4658 18.2359 29.4648 20.2349 29.4648 22.7007C29.4648 25.1666 27.4658 27.1656 25 27.1656C22.5342 27.1656 20.5352 25.1666 20.5352 22.7007C20.5352 20.2349 22.5342 18.2359 25 18.2359Z" fill="#00D8FF"/>
</g>
<defs>
<clipPath id="clip0_170_26">
<rect width="50" height="44.5312" fill="white" transform="translate(0 0.5)"/>
</clipPath>
</defs>
</svg>
