<svg width="60" height="60" viewBox="0 0 60 60" fill="none" xmlns="http://www.w3.org/2000/svg">
<path d="M52.5 30C52.5 25.5499 51.1804 21.1998 48.7081 17.4997C46.2357 13.7996 42.7217 10.9157 38.6104 9.21272C34.499 7.50975 29.9751 7.06417 25.6105 7.93234C21.2459 8.80051 17.2368 10.9434 14.0901 14.0901C10.9434 17.2368 8.80051 21.2459 7.93234 25.6105C7.06417 29.9751 7.50975 34.499 9.21272 38.6104C10.9157 42.7217 13.7996 46.2357 17.4997 48.7081C21.1998 51.1804 25.5499 52.5 30 52.5M9.00001 22.5H51M9.00001 37.5H28.75" stroke="#E8EBF0" stroke-width="2.5" stroke-linecap="round" stroke-linejoin="round"/>
<path d="M28.7502 7.5C24.5385 14.249 22.3057 22.0447 22.3057 30C22.3057 37.9553 24.5385 45.751 28.7502 52.5M31.2502 7.5C35.2914 13.9752 37.5142 21.4191 37.6852 29.05M50.5002 50.5L55.0002 55M37.5002 45C37.5002 46.9891 38.2903 48.8968 39.6968 50.3033C41.1034 51.7098 43.011 52.5 45.0002 52.5C46.9893 52.5 48.8969 51.7098 50.3035 50.3033C51.71 48.8968 52.5002 46.9891 52.5002 45C52.5002 43.0109 51.71 41.1032 50.3035 39.6967C48.8969 38.2902 46.9893 37.5 45.0002 37.5C43.011 37.5 41.1034 38.2902 39.6968 39.6967C38.2903 41.1032 37.5002 43.0109 37.5002 45Z" stroke="#E8EBF0" stroke-width="2.5" stroke-linecap="round" stroke-linejoin="round"/>
</svg>
